<?xml version="1.0" encoding="UTF-8" standalone="no"?><!DOCTYPE svg PUBLIC "-//W3C//DTD SVG 1.1//EN" "http://www.w3.org/Graphics/SVG/1.1/DTD/svg11.dtd"><svg width="100%" height="100%" viewBox="0 0 8000 8000" version="1.1" xmlns="http://www.w3.org/2000/svg" xmlns:xlink="http://www.w3.org/1999/xlink" xml:space="preserve" xmlns:serif="http://www.serif.com/" style="fill-rule:evenodd;clip-rule:evenodd;stroke-linejoin:round;stroke-miterlimit:2;"><g id="Layer-1" serif:id="Layer 1"><path d="M0.073,3976.07c-0.049,0.822 -0.072,1.65 -0.072,2.483l-0,20.961l-0.001,0.486l0.001,0.486l-0,3829c-0,94.169 76.338,170.515 170.507,170.515l3829.01,0l0.486,0.001l0.486,-0.001l1.73,0l0.248,-0.003c2208.11,-1.429 3997.54,-1791.74 3997.54,-4000c0,-2209.14 -1790.86,-4000 -4000,-4000c-2201.19,-0 -3987.1,1777.99 -3999.93,3976.07Z" style="fill:#3a3e38;fill-rule:nonzero;"/><path d="M5316.28,6025.5c-117.03,12.492 -234.053,24.962 -351.1,37.323c-56.846,6.008 -113.73,11.731 -170.584,17.608c-81.185,8.377 -162.369,16.761 -243.546,25.185c-21.823,2.261 -43.677,4.315 -65.431,7.13c-15.315,1.977 -21.492,-3.7 -21.585,-19.338c-0.284,-54.685 -1.615,-109.369 -2.123,-164.054c-0.907,-97.538 -1.561,-195.062 -2.2,-292.592c-0.692,-105.123 -2.184,-210.262 -1.592,-315.377c0.546,-95.123 3.531,-190.246 5.254,-285.362c1.569,-87.338 30.431,-165.315 85.069,-232.484c37.215,-45.754 77.285,-89.485 119,-131.193c301.454,-301.315 603.415,-602.13 905.831,-902.461c52.507,-52.146 122.161,-68.369 189.777,-54.1c127.292,26.861 218.892,99.607 239.069,237.277c9.354,63.823 5.446,126.546 -42.923,177.984c-38.146,40.546 -74.008,83.262 -112.546,123.423c-155.877,162.447 -312.439,324.254 -468.654,486.385c-8.762,9.108 -16.516,19.177 -25.092,28.462c-10.239,11.092 -15.354,22.738 -3.831,35.653c12.107,13.57 27.069,21.647 44.815,12.377c11.008,-5.754 21.162,-14.046 30.031,-22.877c205.115,-204.238 408.546,-410.2 615.908,-612.13c56.338,-54.877 91.253,-114.847 97.769,-192.208c0.908,-10.754 0.684,-21.685 2.561,-32.262c12.393,-70.361 25.462,-140.6 37.816,-210.969c9.431,-53.784 18.069,-107.708 27.184,-161.554c11.354,-67.154 22.947,-134.269 34.223,-201.438c10.031,-59.692 19.377,-119.5 29.716,-179.146c13.5,-77.908 27.392,-155.754 41.677,-233.523c7.461,-40.654 18.831,-80.77 23.515,-121.693c4.862,-42.43 12.939,-82.7 35.862,-119.354c82.061,-131.169 245.907,-150.33 365.884,-71.061c69.446,45.885 109.777,111.585 120.123,193.3c4.585,36.246 1.947,74.131 -2.53,110.638c-7.97,65.054 -19.716,129.647 -30.085,194.4c-9.162,57.247 -18.415,114.485 -27.962,171.67c-11.638,69.646 -23.676,139.238 -35.415,208.869c-9.5,56.331 -18.661,112.723 -28.285,169.038c-11.038,64.646 -21.976,129.316 -33.8,193.823c-9.884,53.939 -21.515,107.554 -31.392,161.5c-14.038,76.685 -21.769,155.016 -42.377,229.847c-17.177,62.4 -53.023,118.361 -98.515,166.338c-22.854,24.1 -45.369,48.531 -68.346,72.508c-0.008,0.007 -12.839,13.261 -25.916,26.53c-24.277,24.647 -283.838,286.485 -594.669,645.662c0,0 -186.131,215.077 -184.131,358.215c0.062,4.293 0.6,24.047 1.2,62.747c1.539,101.692 2.308,174.653 2.308,174.661c0.708,70.146 0.615,84.577 1.762,119.823c0.6,18.754 1.307,35.446 1.976,49.377c0.616,12.862 -8.7,23.892 -21.492,25.408c-17.054,2.015 -37.977,4.292 -61.792,6.523l-260.416,25.492Zm-2633.1,0c117.023,12.492 234.054,24.962 351.1,37.323c56.846,6.008 113.723,11.731 170.592,17.608c81.177,8.377 162.362,16.761 243.539,25.185c21.83,2.261 43.676,4.315 65.43,7.13c15.316,1.977 21.493,-3.7 21.585,-19.338c0.285,-54.685 1.615,-109.369 2.123,-164.054c0.908,-97.538 1.562,-195.062 2.2,-292.592c0.692,-105.123 2.185,-210.262 1.592,-315.377c-0.538,-95.123 -3.53,-190.246 -5.254,-285.362c-1.569,-87.338 -30.43,-165.315 -85.069,-232.484c-37.215,-45.754 -77.284,-89.485 -119.007,-131.193c-301.447,-301.315 -603.4,-602.13 -905.831,-902.461c-52.5,-52.146 -122.154,-68.369 -189.769,-54.1c-127.293,26.861 -218.893,99.607 -239.077,237.277c-9.347,63.823 -5.447,126.546 42.93,177.984c38.147,40.546 74.008,83.262 112.547,123.423c155.884,162.447 312.43,324.254 468.653,486.385c8.77,9.108 16.516,19.177 25.1,28.462c10.231,11.092 15.354,22.738 3.823,35.653c-12.107,13.57 -27.076,21.647 -44.807,12.377c-11.016,-5.754 -21.169,-14.046 -30.039,-22.877c-205.115,-204.238 -408.546,-410.2 -615.9,-612.13c-56.346,-54.877 -91.254,-114.847 -97.777,-192.208c-0.907,-10.754 -0.692,-21.685 -2.553,-32.262c-12.393,-70.361 -25.47,-140.6 -37.816,-210.969c-9.446,-53.784 -18.084,-107.708 -27.184,-161.554c-11.362,-67.154 -22.954,-134.269 -34.231,-201.438c-10.031,-59.692 -19.377,-119.5 -29.716,-179.146c-13.5,-77.908 -27.392,-155.754 -41.677,-233.523c-7.461,-40.654 -18.83,-80.77 -23.515,-121.693c-4.861,-42.43 -12.938,-82.7 -35.861,-119.354c-82.054,-131.169 -245.908,-150.33 -365.885,-71.061c-69.439,45.885 -109.777,111.585 -120.123,193.3c-4.585,36.246 -1.946,74.131 2.531,110.638c7.969,65.054 19.715,129.647 30.084,194.4c9.169,57.247 18.416,114.485 27.969,171.67c11.631,69.646 23.67,139.238 35.408,208.869c9.5,56.331 18.662,112.723 28.285,169.038c11.038,64.646 21.984,129.316 33.8,193.823c9.884,53.939 21.523,107.554 31.392,161.5c14.039,76.685 21.769,155.016 42.377,229.847c17.177,62.4 53.023,118.361 98.515,166.338c22.854,24.1 45.377,48.531 68.347,72.508c0.007,0.007 12.838,13.261 25.907,26.53c24.277,24.647 283.854,286.485 594.685,645.662c-0,-0 186.123,215.077 184.123,358.215c-0.069,4.293 -0.6,24.047 -1.192,62.747c-1.539,101.692 -2.316,174.653 -2.316,174.661c-0.707,70.146 -0.615,84.577 -1.754,119.823c-0.607,18.754 -1.307,35.446 -1.977,49.377c-0.623,12.862 8.7,23.892 21.485,25.408c17.062,2.015 37.977,4.292 61.792,6.523l260.416,25.492Zm1352.23,-1832.24c-299.323,-2.016 -547.907,-84.939 -765.246,-255.231c-209.246,-163.962 -346.331,-376.339 -411.246,-634.431c-27.846,-110.715 -36.546,-223.938 -28.546,-337.254c18.438,-261.215 115.223,-490.823 290.8,-685.638c178.192,-197.739 399.023,-322.431 660.477,-371.3c79.223,-14.8 160.961,-24.562 241.33,-23.262c307.17,4.969 577.962,108.054 805.285,317.177c170.777,157.108 284.392,349.185 338.177,575.039c13.854,58.169 20.592,118.376 26.438,178.053c16.762,171.123 -11.753,336.37 -73.415,495.8c-45.554,117.808 -110.508,224.723 -192.546,321.085c-128.708,151.177 -285.831,262.992 -469.977,336.108c-96.492,38.315 -196.508,64.938 -300.4,74.346c-48.038,4.354 -96.177,7.569 -121.131,9.508Zm782.893,-542.308c-93.685,-0 -182.954,0.369 -272.216,-0.369c-15.015,-0.123 -22.238,5.084 -28.9,18.192c-51.077,100.531 -115.838,191.377 -195.923,270.977c-21.2,21.077 -43.385,41.177 -69.208,65.584c229.5,-57.215 415.693,-172.938 566.247,-354.384Zm-1611,0.008c136.823,164.984 303.669,275.861 505.361,338.2c-20.554,-21.9 -40.346,-41.762 -58.769,-62.831c-68.569,-78.416 -121.169,-166.908 -164.377,-261.385c-2.839,-6.208 -12.246,-13.323 -18.662,-13.392c-86.046,-0.885 -172.107,-0.592 -263.553,-0.592Zm702.5,286.846l-0,-285.2l-246.37,-0c61.154,114.323 136,212.846 246.37,285.2Zm431.13,-285.316l-264.338,0l-0,278.962c110.608,-72.739 196.315,-165.923 264.338,-278.962Zm1734.59,220.595c10.293,-64.162 19.039,-122.069 28.993,-179.769c9.177,-53.146 20.169,-105.97 29.423,-159.108c11.677,-67.015 22.554,-134.169 33.484,-201.315c8.493,-52.139 16.647,-104.347 24.739,-156.547c7.831,-50.538 14.892,-101.207 23.338,-151.646c2.893,-17.292 -1.615,-25.215 -19.769,-26.03c-77.038,-3.439 -138.946,27.23 -188.615,84.123c-39.069,44.761 -55.985,98.523 -60.254,157.092c-0.977,13.323 -5.639,26.338 -8.031,39.608c-18.223,100.907 -36.761,201.769 -54.054,302.846c-3.63,21.254 -4.084,43.431 -2.807,64.984c0.553,9.439 6.769,22.254 14.446,26.985c74.661,45.985 130.692,108.108 167.884,187.415c0.962,2.062 3.323,3.462 11.223,11.362Zm-4151.57,-0c-10.293,-64.162 -19.039,-122.069 -29,-179.769c-9.17,-53.146 -20.162,-105.97 -29.423,-159.108c-11.67,-67.015 -22.554,-134.169 -33.485,-201.315c-8.485,-52.139 -16.646,-104.347 -24.739,-156.547c-7.83,-50.538 -14.884,-101.207 -23.33,-151.646c-2.9,-17.292 1.607,-25.215 19.769,-26.03c77.038,-3.439 138.938,27.23 188.608,84.123c39.077,44.761 55.984,98.523 60.261,157.092c0.969,13.323 5.631,26.338 8.031,39.608c18.215,100.907 36.761,201.769 54.046,302.846c3.639,21.254 4.085,43.431 2.815,64.984c-0.561,9.439 -6.769,22.254 -14.453,26.985c-74.662,45.985 -130.685,108.108 -167.885,187.415c-0.962,2.062 -3.315,3.462 -11.215,11.362Zm3427.29,-6.971c51.623,-51.623 107.385,-99.923 152.862,-156.492c18.584,-23.108 14.892,-64.131 21.677,-98.808c-81.931,9.662 -183.3,115.316 -180.954,250.485c2.138,1.607 4.277,3.215 6.415,4.815Zm-2703,0c-51.623,-51.623 -107.393,-99.923 -152.869,-156.492c-18.577,-23.108 -14.885,-64.131 -21.677,-98.808c81.938,9.662 183.307,115.316 180.953,250.485c-2.13,1.607 -4.269,3.215 -6.407,4.815Zm-488.469,-544.122c103.631,19.184 172.277,78.246 205.908,173.008c16.554,46.661 19.346,98.215 29.138,151.753c-12.276,-1.653 -20.861,-3.315 -29.515,-3.892c-45.877,-3.054 -91.746,-6.977 -137.685,-8.061c-15.307,-0.362 -22.484,-2.062 -25.184,-18.724c-14.116,-87.13 -29.6,-174.038 -43.954,-261.13c-1.669,-10.139 0.715,-20.939 1.292,-32.954Zm3679.94,-0c-103.631,19.184 -172.277,78.246 -205.908,173.008c-16.561,46.661 -19.346,98.215 -29.138,151.753c12.277,-1.653 20.853,-3.315 29.507,-3.892c45.885,-3.054 91.754,-6.977 137.693,-8.061c15.307,-0.362 22.484,-2.062 25.184,-18.724c14.108,-87.13 29.6,-174.038 43.954,-261.13c1.669,-10.139 -0.715,-20.939 -1.292,-32.954Zm-1763.72,168.729l20.193,0c101.507,0 203.023,-0.377 304.538,0.4c15.654,0.123 22.008,-5.538 27.108,-19.469c27.892,-76.169 46.492,-154.692 59.338,-234.531c6.216,-38.615 8.523,-77.861 12.662,-117.354l-423.839,0l0,370.954Zm-1081.25,-371.408c1.116,14.554 1.4,27.839 3.246,40.9c15.585,110.016 46.3,215.385 96.262,314.985c6.092,12.154 13.1,15.892 26.254,15.815c96.161,-0.546 192.331,-0.277 288.492,-0.338c4.508,-0.008 9.008,-0.692 13.516,-1.069c-0,-4.454 0.776,-8.016 -0.116,-11.093c-32.046,-110.915 -51.238,-223.946 -56.623,-339.307c-0.7,-15.085 -6.961,-21.485 -23.808,-21.362l-347.223,1.469Zm530.062,0.816c3.2,31.369 6.061,60.569 9.192,89.746c9.654,89.869 28.654,177.715 55.792,263.954c4.408,13.992 10.77,17.2 24.054,17.138c92.777,-0.461 185.562,-0.223 278.339,-0.307c5.761,-0.008 11.515,-0.9 17.461,-1.4c0.723,-5.016 1.616,-8.277 1.616,-11.547c0.092,-114.292 -0.062,-228.584 0.361,-342.877c0.046,-13.807 -5.638,-16.8 -18.115,-16.761c-116.977,0.331 -233.962,0.185 -350.946,0.261c-4.562,0.008 -9.123,0.893 -17.754,1.793Zm1505.38,-0.785l-368.823,0c-6.885,126.5 -28.762,249.508 -68.6,370.308c5.984,0.561 8.592,1.023 11.192,1.023c101.562,0.038 203.131,0.315 304.685,-0.546c7.077,-0.062 17.8,-7.023 20.523,-13.454c23.2,-54.739 48.1,-109.077 66.269,-165.531c19.8,-61.515 32.054,-125.323 34.754,-191.8Zm-1505.39,-165.023l24.577,0c112.923,0 225.839,-0.4 338.754,0.4c18.593,0.131 23.808,-5.338 23.685,-23.792c-0.762,-116.939 -0.362,-233.893 -0.408,-350.846c0,-4.539 -0.584,-9.085 -0.984,-14.839l-22.985,0c-86.039,0 -172.085,0.785 -258.092,-0.577c-20.623,-0.323 -28.777,6.508 -35.147,25.385c-28.269,83.831 -46.561,169.877 -59.207,257.169c-4.962,34.239 -6.669,68.954 -10.193,107.1Zm-529.461,-1.892c4.7,0.769 7.877,1.746 11.054,1.746c113.592,0.092 227.169,-0.169 340.746,0.415c16.008,0.085 17.231,-9.954 18.369,-20.515c2.1,-19.308 1.992,-38.9 4.831,-58.069c9.692,-65.27 18.908,-130.662 31.008,-195.508c7.138,-38.315 19.353,-75.692 29.277,-113.438c-2.431,-0.808 -3.677,-1.585 -4.924,-1.585c-99.461,-0.115 -198.938,-0.469 -298.392,0.415c-6.977,0.062 -17.161,7.716 -20.277,14.431c-21.4,46.062 -43.346,92.062 -61.238,139.539c-28.077,74.507 -43.131,152.238 -50.454,232.569Zm1080.7,-385.754l-0,384.846c3.923,1.215 5.808,2.308 7.692,2.315c133.023,0.193 266.046,0.231 399.069,0.524c10.754,0.023 14.6,-4.831 13.547,-14.747c-2.539,-23.892 -5,-47.784 -7.816,-71.646c-11.677,-98.661 -37.223,-193.761 -72.946,-286.346c-4.9,-12.723 -11.438,-16.792 -25.031,-16.715l-314.515,1.769Zm910.038,387.646c44.239,0 44.431,-0.023 39.208,-43.423c-13.992,-116.262 -51.377,-225.046 -104.8,-328.815c-6.823,-13.247 -15.323,-17.285 -29.931,-17.185c-95.507,0.669 -191.015,0.346 -286.53,0.346l-22.047,0c45.023,126.662 69.393,254.8 78.831,389.077l325.269,0Zm-725.102,-877.888c98.61,87.542 181.929,198.107 243.741,314.065c5.984,11.215 12.638,14.854 24.923,14.777l268.431,-1.269c-146.546,-166.7 -324.746,-273.946 -537.293,-328.177c0.111,0.265 0.175,0.463 0.198,0.604Zm-545.69,12.903c-190.692,57.739 -353.3,160.654 -487.692,315.67c88.561,-0 171.954,0.354 255.331,-0.662c6.753,-0.084 15.607,-8.169 19.746,-14.846c34.861,-56.362 66.054,-115.223 103.969,-169.4c32.461,-46.385 72.323,-87.585 108.646,-130.762Zm193.969,315.254l0,-262.292c-97.315,72.138 -171.692,159.046 -230.677,262.292l230.677,0Zm416.254,-0.477c-66.4,-105.846 -147.684,-193.1 -248.846,-263.961l-0,263.961l248.846,0Zm-64.533,-327.68l-3.105,-2.75c-0.759,-0.668 3.37,4.246 3.105,2.75Z" style="fill:#fff;fill-rule:nonzero;"/></g></svg>