<?xml version="1.0" encoding="UTF-8" standalone="no"?><!DOCTYPE svg PUBLIC "-//W3C//DTD SVG 1.1//EN" "http://www.w3.org/Graphics/SVG/1.1/DTD/svg11.dtd"><svg width="100%" height="100%" viewBox="0 0 2213 2300" version="1.1" xmlns="http://www.w3.org/2000/svg" xmlns:xlink="http://www.w3.org/1999/xlink" xml:space="preserve" xmlns:serif="http://www.serif.com/" style="fill-rule:evenodd;clip-rule:evenodd;stroke-linejoin:round;stroke-miterlimit:2;"><g id="Layer1"><path d="M1106.19,71.091c-610.854,0 -1106.19,495.23 -1106.19,1106.19c0,488.727 316.958,903.376 756.483,1049.65c55.284,10.24 75.58,-23.997 75.58,-53.214c0,-26.36 -1.026,-113.518 -1.502,-205.951c-307.744,66.916 -372.682,-130.516 -372.682,-130.516c-50.319,-127.842 -122.823,-161.859 -122.823,-161.859c-100.364,-68.656 7.566,-67.246 7.566,-67.246c111.081,7.804 169.571,114.012 169.571,114.012c98.661,169.095 258.779,120.204 321.904,91.939c9.946,-71.478 38.596,-120.295 70.231,-147.919c-245.701,-27.953 -503.986,-122.823 -503.986,-546.686c0,-120.752 43.213,-219.432 113.975,-296.899c-11.485,-27.881 -49.349,-140.39 10.735,-292.76c-0,-0 92.891,-29.712 304.264,113.407c88.238,-24.51 182.869,-36.801 276.878,-37.241c94.008,0.44 188.713,12.731 277.116,37.241c211.135,-143.119 303.897,-113.407 303.897,-113.407c60.212,152.37 22.349,264.879 10.863,292.76c70.928,77.467 113.829,176.147 113.829,296.899c-0,424.889 -258.78,518.421 -505.104,545.807c39.677,34.328 75.031,101.647 75.031,204.851c0,148.01 -1.264,267.133 -1.264,303.568c0,29.455 19.894,63.948 75.966,53.086c439.304,-146.435 755.86,-560.937 755.86,-1049.52c-0.001,-610.964 -495.267,-1106.19 -1106.19,-1106.19" style="fill:#fff;"/><path d="M418.979,1659.33c-2.436,5.513 -11.082,7.162 -18.959,3.37c-8.042,-3.608 -12.53,-11.101 -9.929,-16.614c2.382,-5.642 11.028,-7.218 19.051,-3.444c8.024,3.609 12.603,11.174 9.837,16.688" style="fill:#fff;fill-rule:nonzero;"/><path d="M463.791,1709.31c-5.276,4.891 -15.607,2.619 -22.587,-5.111c-7.254,-7.712 -8.591,-18.043 -3.242,-22.989c5.441,-4.891 15.442,-2.602 22.678,5.11c7.254,7.804 8.664,18.044 3.151,22.99" style="fill:#fff;fill-rule:nonzero;"/><path d="M507.404,1773.01c-6.778,4.726 -17.878,0.311 -24.729,-9.526c-6.778,-9.855 -6.778,-21.652 0.165,-26.378c6.851,-4.726 17.786,-0.458 24.729,9.288c6.759,10.001 6.759,21.798 -0.165,26.616" style="fill:#fff;fill-rule:nonzero;"/><path d="M567.152,1834.57c-6.063,6.686 -18.977,4.891 -28.429,-4.231c-9.672,-8.921 -12.365,-21.579 -6.302,-28.265c6.155,-6.705 19.143,-4.818 28.668,4.231c9.599,8.903 12.511,21.652 6.063,28.265" style="fill:#fff;fill-rule:nonzero;"/><path d="M649.584,1870.31c-2.693,8.665 -15.113,12.585 -27.642,8.903c-12.511,-3.792 -20.7,-13.922 -18.172,-22.678c2.601,-8.737 15.094,-12.822 27.716,-8.884c12.492,3.773 20.699,13.848 18.098,22.659" style="fill:#fff;fill-rule:nonzero;"/><path d="M740.119,1876.93c0.312,9.122 -10.313,16.687 -23.465,16.852c-13.226,0.312 -23.942,-7.089 -24.089,-16.065c0,-9.214 10.405,-16.687 23.612,-16.926c13.153,-0.256 23.942,7.089 23.942,16.139" style="fill:#fff;fill-rule:nonzero;"/><path d="M824.357,1862.6c1.575,8.885 -7.566,18.025 -20.626,20.462c-12.841,2.363 -24.73,-3.151 -26.36,-11.962c-1.594,-9.122 7.694,-18.263 20.535,-20.626c13.079,-2.272 24.784,3.077 26.451,12.126" style="fill:#fff;fill-rule:nonzero;"/></g></svg>